<svg width="16" height="32" viewBox="0 0 16 32" fill="none" xmlns="http://www.w3.org/2000/svg">
<path d="M9.78641 15.75H6V0H6.9154L8.16366 1.86765C8.77393 1.27941 9.46741 0.828431 10.2441 0.514706C11.0208 0.191176 11.8252 0.0294118 12.6574 0.0294118H16V4.02941H12.6574C12.2598 4.02941 11.8853 4.10784 11.534 4.26471C11.1826 4.42157 10.8775 4.63725 10.6186 4.91176C10.3597 5.18627 10.1563 5.5098 10.0083 5.88235C9.86038 6.2549 9.78641 6.65196 9.78641 7.07353V15.75Z" fill="#3E92CC"/>
<path d="M16 23.5444C16 24.7416 15.7904 25.8591 15.3711 26.8967C14.9519 27.9243 14.3815 28.8173 13.66 29.5756C12.9385 30.3238 12.0902 30.9175 11.1152 31.3565C10.1499 31.7855 9.11152 32 8 32C6.89823 32 5.85984 31.7855 4.88483 31.3565C3.91956 30.9175 3.0713 30.3238 2.34004 29.5756C1.61853 28.8173 1.04814 27.9243 0.628885 26.8967C0.209628 25.8591 0 24.7416 0 23.5444C0 22.3272 0.209628 21.1998 0.628885 20.1621C1.04814 19.1245 1.61853 18.2316 2.34004 17.4833C3.0713 16.725 3.91956 16.1314 4.88483 15.7023C5.85984 15.2733 6.89823 15.0588 8 15.0588C9.11152 15.0588 10.1499 15.2634 11.1152 15.6724C12.0902 16.0715 12.9385 16.6452 13.66 17.3935C14.3815 18.1318 14.9519 19.0247 15.3711 20.0723C15.7904 21.11 16 22.2673 16 23.5444ZM11.9781 23.5444C11.9781 22.8859 11.8708 22.2922 11.6563 21.7635C11.4516 21.2247 11.1688 20.7657 10.808 20.3866C10.4473 19.9975 10.0232 19.7032 9.53565 19.5036C9.05789 19.2941 8.54601 19.1894 8 19.1894C7.45399 19.1894 6.93723 19.2941 6.44973 19.5036C5.97197 19.7032 5.55271 19.9975 5.19196 20.3866C4.84095 20.7657 4.56307 21.2247 4.35832 21.7635C4.15357 22.2922 4.05119 22.8859 4.05119 23.5444C4.05119 24.163 4.15357 24.7366 4.35832 25.2654C4.56307 25.7942 4.84095 26.2532 5.19196 26.6423C5.55271 27.0314 5.97197 27.3407 6.44973 27.5702C6.93723 27.7896 7.45399 27.8994 8 27.8994C8.54601 27.8994 9.05789 27.7946 9.53565 27.5851C10.0232 27.3756 10.4473 27.0813 10.808 26.7021C11.1688 26.323 11.4516 25.8641 11.6563 25.3253C11.8708 24.7865 11.9781 24.1929 11.9781 23.5444Z" fill="#3E92CC"/>
</svg>
