<svg width="115" height="60" viewBox="0 0 115 60" fill="none" xmlns="http://www.w3.org/2000/svg">
<path d="M19.5728 29.5312H12V0H13.8308L16.3273 3.50184C17.5479 2.3989 18.9348 1.55331 20.4882 0.965074C22.0416 0.358456 23.6505 0.0551471 25.3148 0.0551471H32V7.55515H25.3148C24.5196 7.55515 23.7707 7.70221 23.068 7.99632C22.3652 8.29044 21.755 8.69485 21.2372 9.20956C20.7194 9.72427 20.3125 10.3309 20.0166 11.0294C19.7208 11.7279 19.5728 12.4724 19.5728 13.2629V29.5312Z" fill="#EFF7FB"/>
<path d="M32 44.1457C32 46.3906 31.5807 48.4858 30.7422 50.4313C29.9037 52.3581 28.7629 54.0324 27.3199 55.4542C25.8769 56.8572 24.1804 57.9703 22.2303 58.7934C20.2998 59.5978 18.223 60 16 60C13.7965 60 11.7197 59.5978 9.76965 58.7934C7.83912 57.9703 6.1426 56.8572 4.68007 55.4542C3.23705 54.0324 2.09628 52.3581 1.25777 50.4313C0.419257 48.4858 0 46.3906 0 44.1457C0 41.8634 0.419257 39.7495 1.25777 37.804C2.09628 35.8585 3.23705 34.1842 4.68007 32.7811C6.1426 31.3594 7.83912 30.2463 9.76965 29.4419C11.7197 28.6375 13.7965 28.2353 16 28.2353C18.223 28.2353 20.2998 28.6188 22.2303 29.3858C24.1804 30.1341 25.8769 31.2097 27.3199 32.6128C28.7629 33.9971 29.9037 35.6714 30.7422 37.6356C31.5807 39.5812 32 41.7512 32 44.1457ZM23.9561 44.1457C23.9561 42.911 23.7416 41.798 23.3126 40.8065C22.9031 39.7963 22.3376 38.9358 21.6161 38.2249C20.8946 37.4953 20.0463 36.9435 19.0713 36.5693C18.1158 36.1765 17.092 35.98 16 35.98C14.908 35.98 13.8745 36.1765 12.8995 36.5693C11.9439 36.9435 11.1054 37.4953 10.3839 38.2249C9.6819 38.9358 9.12614 39.7963 8.71664 40.8065C8.30713 41.798 8.10238 42.911 8.10238 44.1457C8.10238 45.3055 8.30713 46.3812 8.71664 47.3727C9.12614 48.3642 9.6819 49.2247 10.3839 49.9543C11.1054 50.6838 11.9439 51.2638 12.8995 51.694C13.8745 52.1056 14.908 52.3114 16 52.3114C17.092 52.3114 18.1158 52.1149 19.0713 51.7221C20.0463 51.3292 20.8946 50.7774 21.6161 50.0665C22.3376 49.3556 22.9031 48.4951 23.3126 47.4849C23.7416 46.4747 23.9561 45.3617 23.9561 44.1457Z" fill="#EFF7FB"/>
<path d="M58.94 14.1C58.06 14.1133 57.28 14.34 56.6 14.78C55.9333 15.2067 55.46 15.8 55.18 16.56V23H53.42V12.56H55.06V14.98C55.42 14.26 55.8933 13.68 56.48 13.24C57.08 12.7867 57.7066 12.5333 58.36 12.48C58.4933 12.48 58.6066 12.48 58.7 12.48C58.7933 12.48 58.8733 12.4867 58.94 12.5V14.1Z" fill="#EFF7FB"/>
<path d="M65.0712 23.2C64.0312 23.2 63.1112 22.9533 62.3112 22.46C61.5112 21.9667 60.8846 21.3067 60.4312 20.48C59.9779 19.6533 59.7512 18.7533 59.7512 17.78C59.7512 16.7933 59.9779 15.8933 60.4312 15.08C60.8846 14.2667 61.5112 13.6133 62.3112 13.12C63.1246 12.6267 64.0512 12.38 65.0912 12.38C66.1445 12.38 67.0579 12.6333 67.8312 13.14C68.6179 13.6333 69.2246 14.2867 69.6512 15.1C70.0912 15.9 70.3112 16.7667 70.3112 17.7C70.3112 17.9933 70.2979 18.22 70.2712 18.38H61.6112C61.6646 19.06 61.8512 19.6667 62.1712 20.2C62.5046 20.72 62.9312 21.1333 63.4512 21.44C63.9712 21.7333 64.5312 21.88 65.1312 21.88C65.7712 21.88 66.3712 21.72 66.9312 21.4C67.5046 21.08 67.8979 20.66 68.1112 20.14L69.6312 20.56C69.2979 21.3333 68.7179 21.9667 67.8912 22.46C67.0646 22.9533 66.1246 23.2 65.0712 23.2ZM61.5512 17.16H68.6712C68.6179 16.48 68.4246 15.88 68.0912 15.36C67.7579 14.84 67.3312 14.4333 66.8112 14.14C66.2912 13.8467 65.7179 13.7 65.0912 13.7C64.4779 13.7 63.9112 13.8467 63.3912 14.14C62.8712 14.4333 62.4446 14.84 62.1112 15.36C61.7912 15.88 61.6046 16.48 61.5512 17.16Z" fill="#EFF7FB"/>
<path d="M88.0076 23H86.2476V17.16C86.2476 16.0667 86.0676 15.26 85.7076 14.74C85.361 14.22 84.841 13.96 84.1476 13.96C83.441 13.96 82.801 14.22 82.2276 14.74C81.6543 15.2467 81.2476 15.9067 81.0076 16.72V23H79.2476V17.16C79.2476 16.0533 79.0743 15.2467 78.7276 14.74C78.381 14.22 77.861 13.96 77.1676 13.96C76.4743 13.96 75.8343 14.2133 75.2476 14.72C74.6743 15.2133 74.2676 15.8733 74.0276 16.7V23H72.2676V12.56H73.8676V14.8C74.2943 14.0267 74.8476 13.4333 75.5276 13.02C76.2076 12.5933 76.9743 12.38 77.8276 12.38C78.6943 12.38 79.3876 12.62 79.9076 13.1C80.4276 13.5667 80.7476 14.1733 80.8676 14.92C81.801 13.2267 83.1276 12.38 84.8476 12.38C85.6476 12.38 86.2743 12.5733 86.7276 12.96C87.1943 13.3333 87.521 13.8533 87.7076 14.52C87.9076 15.1733 88.0076 15.92 88.0076 16.76V23Z" fill="#EFF7FB"/>
<path d="M90.6442 18.82V12.56H92.4042V18.48C92.4042 20.6133 93.1442 21.68 94.6242 21.68C95.3442 21.68 96.0175 21.4533 96.6442 21C97.2842 20.5333 97.7575 19.9 98.0642 19.1V12.56H99.8242V21C99.8242 21.4133 100.011 21.6267 100.384 21.64V23C100.184 23.0267 100.024 23.04 99.9042 23.04C99.7975 23.0533 99.6909 23.06 99.5842 23.06C99.2509 23.06 98.9642 22.96 98.7242 22.76C98.4842 22.5467 98.3575 22.2867 98.3442 21.98L98.3042 20.76C97.8509 21.5333 97.2375 22.1333 96.4642 22.56C95.7042 22.9867 94.8708 23.2 93.9642 23.2C91.7509 23.2 90.6442 21.74 90.6442 18.82Z" fill="#EFF7FB"/>
<path d="M57.98 51.2C56.94 51.2 56.02 50.9533 55.22 50.46C54.4333 49.9533 53.82 49.2933 53.38 48.48C52.94 47.6533 52.72 46.76 52.72 45.8C52.72 44.8267 52.94 43.9333 53.38 43.12C53.8333 42.2933 54.4533 41.6333 55.24 41.14C56.04 40.6333 56.9533 40.38 57.98 40.38C59.02 40.38 59.9333 40.6333 60.72 41.14C61.52 41.6333 62.14 42.2933 62.58 43.12C63.0333 43.9333 63.26 44.8267 63.26 45.8C63.26 46.76 63.0333 47.6533 62.58 48.48C62.14 49.2933 61.5266 49.9533 60.74 50.46C59.9533 50.9533 59.0333 51.2 57.98 51.2ZM54.52 45.82C54.52 46.54 54.6733 47.1933 54.98 47.78C55.3 48.3667 55.72 48.8333 56.24 49.18C56.76 49.5133 57.34 49.68 57.98 49.68C58.62 49.68 59.2 49.5067 59.72 49.16C60.2533 48.8133 60.6733 48.3467 60.98 47.76C61.3 47.16 61.46 46.5 61.46 45.78C61.46 45.06 61.3 44.4067 60.98 43.82C60.6733 43.2333 60.2533 42.7667 59.72 42.42C59.2 42.0733 58.62 41.9 57.98 41.9C57.34 41.9 56.76 42.08 56.24 42.44C55.72 42.7867 55.3 43.2533 54.98 43.84C54.6733 44.4267 54.52 45.0867 54.52 45.82Z" fill="#EFF7FB"/>
<path d="M65.4326 36.4H67.1926V48.3C67.1926 48.8733 67.2726 49.2267 67.4326 49.36C67.5926 49.4933 67.786 49.56 68.0126 49.56C68.2926 49.56 68.5593 49.5333 68.8126 49.48C69.066 49.4133 69.2793 49.3467 69.4526 49.28L69.7326 50.72C69.4393 50.84 69.0926 50.94 68.6926 51.02C68.2926 51.1 67.9393 51.14 67.6326 51.14C66.9526 51.14 66.4126 50.9467 66.0126 50.56C65.626 50.1733 65.4326 49.6333 65.4326 48.94V36.4Z" fill="#EFF7FB"/>
<path d="M71.1553 36.4H72.9153V48.3C72.9153 48.8733 72.9953 49.2267 73.1553 49.36C73.3153 49.4933 73.5086 49.56 73.7353 49.56C74.0153 49.56 74.282 49.5333 74.5353 49.48C74.7886 49.4133 75.002 49.3467 75.1753 49.28L75.4553 50.72C75.1619 50.84 74.8153 50.94 74.4153 51.02C74.0153 51.1 73.662 51.14 73.3553 51.14C72.6753 51.14 72.1353 50.9467 71.7353 50.56C71.3486 50.1733 71.1553 49.6333 71.1553 48.94V36.4Z" fill="#EFF7FB"/>
<path d="M76.8379 38.6V36.4H78.5979V38.6H76.8379ZM76.8379 51V40.56H78.5979V51H76.8379Z" fill="#EFF7FB"/>
<path d="M90.5073 51H88.7473V45.16C88.7473 44.0533 88.574 43.2467 88.2273 42.74C87.894 42.22 87.3806 41.96 86.6873 41.96C86.2073 41.96 85.7273 42.08 85.2473 42.32C84.7806 42.56 84.3606 42.8867 83.9873 43.3C83.6273 43.7 83.3673 44.1667 83.2073 44.7V51H81.4473V40.56H83.0473V42.8C83.4606 42.0667 84.054 41.48 84.8273 41.04C85.614 40.6 86.4673 40.38 87.3873 40.38C88.2006 40.38 88.8273 40.5733 89.2673 40.96C89.7207 41.3333 90.0406 41.8533 90.2273 42.52C90.414 43.1733 90.5073 43.92 90.5073 44.76V51Z" fill="#EFF7FB"/>
<path d="M97.8642 51.2C96.8242 51.2 95.9042 50.9533 95.1042 50.46C94.3042 49.9667 93.6775 49.3067 93.2242 48.48C92.7709 47.6533 92.5442 46.7533 92.5442 45.78C92.5442 44.7933 92.7709 43.8933 93.2242 43.08C93.6775 42.2667 94.3042 41.6133 95.1042 41.12C95.9175 40.6267 96.8442 40.38 97.8842 40.38C98.9375 40.38 99.8509 40.6333 100.624 41.14C101.411 41.6333 102.018 42.2867 102.444 43.1C102.884 43.9 103.104 44.7667 103.104 45.7C103.104 45.9933 103.091 46.22 103.064 46.38H94.4042C94.4575 47.06 94.6442 47.6667 94.9642 48.2C95.2975 48.72 95.7242 49.1333 96.2442 49.44C96.7642 49.7333 97.3242 49.88 97.9242 49.88C98.5642 49.88 99.1642 49.72 99.7242 49.4C100.298 49.08 100.691 48.66 100.904 48.14L102.424 48.56C102.091 49.3333 101.511 49.9667 100.684 50.46C99.8575 50.9533 98.9175 51.2 97.8642 51.2ZM94.3442 45.16H101.464C101.411 44.48 101.218 43.88 100.884 43.36C100.551 42.84 100.124 42.4333 99.6042 42.14C99.0842 41.8467 98.5108 41.7 97.8842 41.7C97.2709 41.7 96.7042 41.8467 96.1842 42.14C95.6642 42.4333 95.2375 42.84 94.9042 43.36C94.5842 43.88 94.3975 44.48 94.3442 45.16Z" fill="#EFF7FB"/>
<path d="M114.121 51H112.361V45.16C112.361 44.0533 112.187 43.2467 111.841 42.74C111.507 42.22 110.994 41.96 110.301 41.96C109.821 41.96 109.341 42.08 108.861 42.32C108.394 42.56 107.974 42.8867 107.601 43.3C107.241 43.7 106.981 44.1667 106.821 44.7V51H105.061V40.56H106.661V42.8C107.074 42.0667 107.667 41.48 108.441 41.04C109.227 40.6 110.081 40.38 111.001 40.38C111.814 40.38 112.441 40.5733 112.881 40.96C113.334 41.3333 113.654 41.8533 113.841 42.52C114.027 43.1733 114.121 43.92 114.121 44.76V51Z" fill="#EFF7FB"/>
</svg>
