<svg width="165" height="92" viewBox="0 0 165 92" fill="none" xmlns="http://www.w3.org/2000/svg">
<path d="M46.9561 57.1457C46.9561 55.911 46.7416 54.798 46.3126 53.8065C45.9031 52.7963 45.3376 51.9358 44.6161 51.2249C43.8946 50.4953 43.0463 49.9435 42.0713 49.5693C41.1158 49.1765 40.092 48.98 39 48.98C37.908 48.98 36.8745 49.1765 35.8994 49.5693C34.9439 49.9435 34.1054 50.4953 33.3839 51.2249C32.6819 51.9358 32.1261 52.7963 31.7166 53.8065C31.3071 54.798 31.1024 55.911 31.1024 57.1457C31.1024 58.3055 31.3071 59.3812 31.7166 60.3727C32.1261 61.3642 32.6819 62.2247 33.3839 62.9543C34.1054 63.6838 34.9439 64.2638 35.8994 64.694C36.8745 65.1056 37.908 65.3114 39 65.3114C40.092 65.3114 41.1158 65.1149 42.0713 64.7221C43.0463 64.3292 43.8946 63.7774 44.6161 63.0665C45.3376 62.3557 45.9031 61.4951 46.3126 60.4849C46.7416 59.4747 46.9561 58.3617 46.9561 57.1457Z" fill="#13293D"/>
<path d="M84.5512 30.16H91.6712C91.6179 29.48 91.4246 28.88 91.0912 28.36C90.7579 27.84 90.3312 27.4333 89.8112 27.14C89.2912 26.8467 88.7179 26.7 88.0912 26.7C87.4779 26.7 86.9112 26.8467 86.3912 27.14C85.8712 27.4333 85.4445 27.84 85.1112 28.36C84.7912 28.88 84.6046 29.48 84.5512 30.16Z" fill="#13293D"/>
<path d="M77.98 60.78C77.6733 60.1934 77.52 59.54 77.52 58.82C77.52 58.0867 77.6733 57.4267 77.98 56.84C78.3 56.2534 78.72 55.7867 79.24 55.44C79.76 55.08 80.34 54.9 80.98 54.9C81.62 54.9 82.2 55.0734 82.72 55.42C83.2533 55.7667 83.6733 56.2333 83.98 56.82C84.3 57.4067 84.46 58.06 84.46 58.78C84.46 59.5 84.3 60.16 83.98 60.76C83.6733 61.3467 83.2533 61.8134 82.72 62.16C82.2 62.5067 81.62 62.68 80.98 62.68C80.34 62.68 79.76 62.5134 79.24 62.18C78.72 61.8333 78.3 61.3667 77.98 60.78Z" fill="#13293D"/>
<path d="M117.344 58.16H124.464C124.411 57.48 124.218 56.88 123.884 56.36C123.551 55.84 123.124 55.4333 122.604 55.14C122.084 54.8467 121.511 54.7 120.884 54.7C120.271 54.7 119.704 54.8467 119.184 55.14C118.664 55.4333 118.238 55.84 117.904 56.36C117.584 56.88 117.398 57.48 117.344 58.16Z" fill="#13293D"/>
<path fill-rule="evenodd" clip-rule="evenodd" d="M0 0H165V92H0V0ZM35 13V41.7108C34.239 41.8988 33.4955 42.1425 32.7697 42.4419C30.8391 43.2463 29.1426 44.3594 27.6801 45.7811C26.2371 47.1841 25.0963 48.8585 24.2578 50.804C23.4193 52.7495 23 54.8635 23 57.1457C23 59.3906 23.4193 61.4858 24.2578 63.4313C25.0963 65.3582 26.2371 67.0324 27.6801 68.4542C29.1426 69.8572 30.8391 70.9703 32.7697 71.7934C34.7197 72.5978 36.7965 73 39 73C41.223 73 43.2998 72.5978 45.2303 71.7934C47.1804 70.9703 48.8769 69.8572 50.3199 68.4542C51.7629 67.0324 52.9037 65.3582 53.7422 63.4313C54.5807 61.4858 55 59.3906 55 57.1457C55 54.7512 54.5807 52.5812 53.7422 50.6356C52.9037 48.6714 51.7629 46.9971 50.3199 45.6128C48.8769 44.2097 47.1804 43.1341 45.2303 42.3858C44.3733 42.0453 43.4875 41.7804 42.5728 41.5911V26.2629C42.5728 25.4724 42.7208 24.728 43.0166 24.0294C43.3125 23.3309 43.7194 22.7242 44.2372 22.2095C44.755 21.6948 45.3652 21.2905 46.068 20.9963C46.7707 20.7022 47.5197 20.5552 48.3148 20.5552H55V13.0552H48.3148C46.6505 13.0552 45.0416 13.3585 43.4882 13.9651C41.9348 14.5533 40.5479 15.3989 39.3273 16.5018L36.8308 13H35ZM88.0712 36.2C87.0312 36.2 86.1112 35.9533 85.3112 35.46C84.5112 34.9667 83.8846 34.3067 83.4312 33.48C82.9779 32.6533 82.7512 31.7534 82.7512 30.78C82.7512 29.7933 82.9779 28.8933 83.4312 28.08C83.8846 27.2667 84.5112 26.6133 85.3112 26.12C86.1245 25.6266 87.0512 25.38 88.0912 25.38C89.1446 25.38 90.0579 25.6334 90.8312 26.14C91.6179 26.6334 92.2245 27.2867 92.6512 28.1C93.0912 28.9 93.3112 29.7667 93.3112 30.7C93.3112 30.9933 93.2979 31.22 93.2712 31.38H84.6112C84.6646 32.06 84.8512 32.6667 85.1712 33.2C85.5045 33.72 85.9312 34.1334 86.4512 34.44C86.9712 34.7333 87.5312 34.88 88.1312 34.88C88.7712 34.88 89.3712 34.72 89.9312 34.4C90.5045 34.08 90.8979 33.66 91.1112 33.14L92.6312 33.56C92.2979 34.3333 91.7179 34.9667 90.8912 35.46C90.0645 35.9533 89.1245 36.2 88.0712 36.2ZM81.94 27.1C81.06 27.1133 80.28 27.34 79.6 27.78C78.9333 28.2067 78.46 28.8 78.18 29.56V36H76.42V25.56H78.06V27.98C78.42 27.26 78.8933 26.68 79.48 26.24C80.08 25.7867 80.7066 25.5333 81.36 25.48H81.7C81.7933 25.48 81.8733 25.4867 81.94 25.5V27.1ZM109.248 36H111.008V29.76C111.008 28.92 110.908 28.1733 110.708 27.52C110.521 26.8533 110.194 26.3333 109.728 25.96C109.274 25.5734 108.648 25.38 107.848 25.38C106.128 25.38 104.801 26.2267 103.868 27.92C103.748 27.1733 103.428 26.5667 102.908 26.1C102.388 25.62 101.694 25.38 100.828 25.38C99.9743 25.38 99.2076 25.5933 98.5276 26.02C97.8476 26.4333 97.2943 27.0267 96.8676 27.8V25.56H95.2676V36H97.0276V29.7C97.2676 28.8734 97.6743 28.2133 98.2476 27.72C98.8343 27.2133 99.4743 26.96 100.168 26.96C100.861 26.96 101.381 27.22 101.728 27.74C102.074 28.2466 102.248 29.0533 102.248 30.16V36H104.008V29.72C104.248 28.9067 104.654 28.2466 105.228 27.74C105.801 27.22 106.441 26.96 107.148 26.96C107.841 26.96 108.361 27.22 108.708 27.74C109.068 28.26 109.248 29.0667 109.248 30.16V36ZM113.644 31.82V25.56H115.404V31.48C115.404 33.6133 116.144 34.68 117.624 34.68C118.344 34.68 119.018 34.4533 119.644 34C120.284 33.5333 120.758 32.9 121.064 32.1V25.56H122.824V34C122.824 34.4133 123.011 34.6266 123.384 34.64V36C123.184 36.0267 123.024 36.04 122.904 36.04C122.798 36.0533 122.691 36.06 122.584 36.06C122.251 36.06 121.964 35.96 121.724 35.76C121.484 35.5467 121.358 35.2867 121.344 34.98L121.304 33.76C120.851 34.5333 120.238 35.1334 119.464 35.56C118.704 35.9867 117.871 36.2 116.964 36.2C114.751 36.2 113.644 34.74 113.644 31.82ZM78.22 63.46C79.02 63.9534 79.94 64.2 80.98 64.2C82.0333 64.2 82.9533 63.9534 83.74 63.46C84.5266 62.9534 85.14 62.2933 85.58 61.48C86.0333 60.6533 86.26 59.76 86.26 58.8C86.26 57.8267 86.0333 56.9333 85.58 56.12C85.14 55.2933 84.52 54.6334 83.72 54.14C82.9333 53.6334 82.02 53.38 80.98 53.38C79.9533 53.38 79.04 53.6334 78.24 54.14C77.4533 54.6334 76.8333 55.2933 76.38 56.12C75.94 56.9333 75.72 57.8267 75.72 58.8C75.72 59.76 75.94 60.6533 76.38 61.48C76.82 62.2933 77.4333 62.9534 78.22 63.46ZM88.4326 49.4H90.1926V61.3C90.1926 61.8734 90.2726 62.2267 90.4326 62.36C90.5926 62.4933 90.7859 62.56 91.0126 62.56C91.2926 62.56 91.5593 62.5333 91.8126 62.48C92.0659 62.4133 92.2793 62.3467 92.4526 62.28L92.7326 63.72C92.4393 63.84 92.0926 63.94 91.6926 64.02C91.2926 64.1 90.9393 64.14 90.6326 64.14C89.9526 64.14 89.4126 63.9467 89.0126 63.56C88.6259 63.1733 88.4326 62.6334 88.4326 61.94V49.4ZM95.9153 49.4H94.1553V61.94C94.1553 62.6334 94.3486 63.1733 94.7353 63.56C95.1353 63.9467 95.6753 64.14 96.3553 64.14C96.662 64.14 97.0153 64.1 97.4153 64.02C97.8153 63.94 98.162 63.84 98.4553 63.72L98.1753 62.28C98.002 62.3467 97.7886 62.4133 97.5353 62.48C97.282 62.5333 97.0153 62.56 96.7353 62.56C96.5086 62.56 96.3153 62.4933 96.1553 62.36C95.9953 62.2267 95.9153 61.8734 95.9153 61.3V49.4ZM99.838 51.6V49.4H101.598V51.6H99.838ZM99.838 53.56H101.598V64H99.838V53.56ZM111.747 64H113.507V57.76C113.507 56.92 113.414 56.1733 113.227 55.52C113.041 54.8533 112.721 54.3333 112.267 53.96C111.827 53.5734 111.201 53.38 110.387 53.38C109.467 53.38 108.614 53.6 107.827 54.04C107.054 54.48 106.461 55.0667 106.047 55.8V53.56H104.447V64H106.207V57.7C106.367 57.1667 106.627 56.7 106.987 56.3C107.361 55.8867 107.781 55.56 108.247 55.32C108.727 55.08 109.207 54.96 109.687 54.96C110.381 54.96 110.894 55.22 111.227 55.74C111.574 56.2466 111.747 57.0533 111.747 58.16V64ZM120.864 64.2C119.824 64.2 118.904 63.9534 118.104 63.46C117.304 62.9667 116.678 62.3066 116.224 61.48C115.771 60.6533 115.544 59.7534 115.544 58.78C115.544 57.7933 115.771 56.8933 116.224 56.08C116.678 55.2667 117.304 54.6133 118.104 54.12C118.918 53.6266 119.844 53.38 120.884 53.38C121.938 53.38 122.851 53.6334 123.624 54.14C124.411 54.6334 125.018 55.2867 125.444 56.1C125.884 56.9 126.104 57.7667 126.104 58.7C126.104 58.9933 126.091 59.22 126.064 59.38H117.404C117.458 60.06 117.644 60.6667 117.964 61.2C118.298 61.72 118.724 62.1334 119.244 62.44C119.764 62.7333 120.324 62.88 120.924 62.88C121.564 62.88 122.164 62.72 122.724 62.4C123.298 62.08 123.691 61.66 123.904 61.14L125.424 61.56C125.091 62.3333 124.511 62.9667 123.684 63.46C122.858 63.9534 121.918 64.2 120.864 64.2ZM135.361 64H137.121V57.76C137.121 56.92 137.027 56.1733 136.841 55.52C136.654 54.8533 136.334 54.3333 135.881 53.96C135.441 53.5734 134.814 53.38 134.001 53.38C133.081 53.38 132.227 53.6 131.441 54.04C130.667 54.48 130.074 55.0667 129.661 55.8V53.56H128.061V64H129.821V57.7C129.981 57.1667 130.241 56.7 130.601 56.3C130.974 55.8867 131.394 55.56 131.861 55.32C132.341 55.08 132.821 54.96 133.301 54.96C133.994 54.96 134.507 55.22 134.841 55.74C135.187 56.2466 135.361 57.0533 135.361 58.16V64Z" fill="#13293D"/>
</svg>
