<svg width="115" height="60" viewBox="0 0 115 60" fill="none" xmlns="http://www.w3.org/2000/svg">
<path d="M19.5728 29.5312H12V0H13.8308L16.3273 3.50184C17.5479 2.3989 18.9348 1.55331 20.4882 0.965074C22.0416 0.358456 23.6505 0.0551471 25.3148 0.0551471H32V7.55515H25.3148C24.5196 7.55515 23.7707 7.70221 23.068 7.99632C22.3652 8.29044 21.755 8.69485 21.2372 9.20956C20.7194 9.72426 20.3125 10.3309 20.0166 11.0294C19.7208 11.7279 19.5728 12.4724 19.5728 13.2629V29.5312Z" fill="#13293D"/>
<path d="M32 44.1457C32 46.3906 31.5807 48.4858 30.7422 50.4313C29.9037 52.3581 28.7629 54.0324 27.3199 55.4542C25.8769 56.8572 24.1804 57.9703 22.2303 58.7934C20.2998 59.5978 18.223 60 16 60C13.7965 60 11.7197 59.5978 9.76965 58.7934C7.83912 57.9703 6.1426 56.8572 4.68007 55.4542C3.23705 54.0324 2.09628 52.3581 1.25777 50.4313C0.419257 48.4858 0 46.3906 0 44.1457C0 41.8634 0.419257 39.7495 1.25777 37.804C2.09628 35.8585 3.23705 34.1842 4.68007 32.7811C6.1426 31.3594 7.83912 30.2463 9.76965 29.4419C11.7197 28.6375 13.7965 28.2353 16 28.2353C18.223 28.2353 20.2998 28.6188 22.2303 29.3858C24.1804 30.1341 25.8769 31.2097 27.3199 32.6128C28.7629 33.9971 29.9037 35.6714 30.7422 37.6356C31.5807 39.5812 32 41.7512 32 44.1457ZM23.9561 44.1457C23.9561 42.911 23.7416 41.798 23.3126 40.8065C22.9031 39.7963 22.3376 38.9358 21.6161 38.2249C20.8946 37.4953 20.0463 36.9435 19.0713 36.5693C18.1158 36.1765 17.092 35.98 16 35.98C14.908 35.98 13.8745 36.1765 12.8995 36.5693C11.9439 36.9435 11.1054 37.4953 10.3839 38.2249C9.6819 38.9358 9.12614 39.7963 8.71664 40.8065C8.30713 41.798 8.10238 42.911 8.10238 44.1457C8.10238 45.3056 8.30713 46.3812 8.71664 47.3727C9.12614 48.3642 9.6819 49.2247 10.3839 49.9543C11.1054 50.6839 11.9439 51.2638 12.8995 51.694C13.8745 52.1056 14.908 52.3114 16 52.3114C17.092 52.3114 18.1158 52.1149 19.0713 51.7221C20.0463 51.3292 20.8946 50.7774 21.6161 50.0665C22.3376 49.3556 22.9031 48.4951 23.3126 47.4849C23.7416 46.4747 23.9561 45.3617 23.9561 44.1457Z" fill="#13293D"/>
<path d="M59.22 10.72C58.34 10.7333 57.56 10.96 56.88 11.4C56.2133 11.8267 55.74 12.42 55.46 13.18V19.62H53.7V9.18H55.34V11.6C55.7 10.88 56.1733 10.3 56.76 9.86C57.36 9.40667 57.9867 9.15333 58.64 9.1C58.7733 9.1 58.8867 9.1 58.98 9.1C59.0733 9.1 59.1533 9.10667 59.22 9.12V10.72Z" fill="#13293D"/>
<path d="M65.3512 19.82C64.3112 19.82 63.3913 19.5733 62.5913 19.08C61.7913 18.5867 61.1646 17.9267 60.7113 17.1C60.2579 16.2733 60.0312 15.3733 60.0312 14.4C60.0312 13.4133 60.2579 12.5133 60.7113 11.7C61.1646 10.8867 61.7913 10.2333 62.5913 9.74C63.4046 9.24667 64.3312 9 65.3712 9C66.4246 9 67.3379 9.25333 68.1113 9.76C68.8979 10.2533 69.5046 10.9067 69.9313 11.72C70.3713 12.52 70.5912 13.3867 70.5912 14.32C70.5912 14.6133 70.5779 14.84 70.5513 15H61.8913C61.9446 15.68 62.1312 16.2867 62.4512 16.82C62.7846 17.34 63.2113 17.7533 63.7313 18.06C64.2513 18.3533 64.8112 18.5 65.4112 18.5C66.0512 18.5 66.6513 18.34 67.2113 18.02C67.7846 17.7 68.1779 17.28 68.3913 16.76L69.9113 17.18C69.5779 17.9533 68.9979 18.5867 68.1712 19.08C67.3446 19.5733 66.4046 19.82 65.3512 19.82ZM61.8312 13.78H68.9512C68.8979 13.1 68.7046 12.5 68.3712 11.98C68.0379 11.46 67.6112 11.0533 67.0912 10.76C66.5712 10.4667 65.9979 10.32 65.3712 10.32C64.7579 10.32 64.1912 10.4667 63.6712 10.76C63.1512 11.0533 62.7246 11.46 62.3913 11.98C62.0713 12.5 61.8846 13.1 61.8312 13.78Z" fill="#13293D"/>
<path d="M88.2877 19.62H86.5277V13.78C86.5277 12.6867 86.3477 11.88 85.9877 11.36C85.641 10.84 85.121 10.58 84.4277 10.58C83.721 10.58 83.081 10.84 82.5077 11.36C81.9343 11.8667 81.5277 12.5267 81.2877 13.34V19.62H79.5277V13.78C79.5277 12.6733 79.3543 11.8667 79.0077 11.36C78.661 10.84 78.141 10.58 77.4477 10.58C76.7543 10.58 76.1143 10.8333 75.5277 11.34C74.9543 11.8333 74.5477 12.4933 74.3077 13.32V19.62H72.5477V9.18H74.1477V11.42C74.5743 10.6467 75.1277 10.0533 75.8077 9.64C76.4877 9.21333 77.2543 9 78.1077 9C78.9743 9 79.6677 9.24 80.1877 9.72C80.7077 10.1867 81.0277 10.7933 81.1477 11.54C82.081 9.84667 83.4077 9 85.1277 9C85.9277 9 86.5543 9.19333 87.0077 9.58C87.4743 9.95333 87.801 10.4733 87.9877 11.14C88.1877 11.7933 88.2877 12.54 88.2877 13.38V19.62Z" fill="#13293D"/>
<path d="M90.9242 15.44V9.18H92.6842V15.1C92.6842 17.2333 93.4242 18.3 94.9042 18.3C95.6242 18.3 96.2976 18.0733 96.9242 17.62C97.5642 17.1533 98.0376 16.52 98.3442 15.72V9.18H100.104V17.62C100.104 18.0333 100.291 18.2467 100.664 18.26V19.62C100.464 19.6467 100.304 19.66 100.184 19.66C100.078 19.6733 99.9709 19.68 99.8642 19.68C99.5309 19.68 99.2442 19.58 99.0042 19.38C98.7642 19.1667 98.6376 18.9067 98.6242 18.6L98.5842 17.38C98.1309 18.1533 97.5176 18.7533 96.7442 19.18C95.9842 19.6067 95.1509 19.82 94.2442 19.82C92.0309 19.82 90.9242 18.36 90.9242 15.44Z" fill="#13293D"/>
<path d="M58.26 47.82C57.22 47.82 56.3 47.5733 55.5 47.08C54.7133 46.5733 54.1 45.9133 53.66 45.1C53.22 44.2733 53 43.38 53 42.42C53 41.4467 53.22 40.5533 53.66 39.74C54.1133 38.9133 54.7333 38.2533 55.52 37.76C56.32 37.2533 57.2333 37 58.26 37C59.3 37 60.2133 37.2533 61 37.76C61.8 38.2533 62.42 38.9133 62.86 39.74C63.3133 40.5533 63.54 41.4467 63.54 42.42C63.54 43.38 63.3133 44.2733 62.86 45.1C62.42 45.9133 61.8067 46.5733 61.02 47.08C60.2333 47.5733 59.3133 47.82 58.26 47.82ZM54.8 42.44C54.8 43.16 54.9533 43.8133 55.26 44.4C55.58 44.9867 56 45.4533 56.52 45.8C57.04 46.1333 57.62 46.3 58.26 46.3C58.9 46.3 59.48 46.1267 60 45.78C60.5333 45.4333 60.9533 44.9667 61.26 44.38C61.58 43.78 61.74 43.12 61.74 42.4C61.74 41.68 61.58 41.0267 61.26 40.44C60.9533 39.8533 60.5333 39.3867 60 39.04C59.48 38.6933 58.9 38.52 58.26 38.52C57.62 38.52 57.04 38.7 56.52 39.06C56 39.4067 55.58 39.8733 55.26 40.46C54.9533 41.0467 54.8 41.7067 54.8 42.44Z" fill="#13293D"/>
<path d="M65.7127 33.02H67.4727V44.92C67.4727 45.4933 67.5527 45.8467 67.7127 45.98C67.8727 46.1133 68.066 46.18 68.2927 46.18C68.5727 46.18 68.8393 46.1533 69.0927 46.1C69.346 46.0333 69.5593 45.9667 69.7327 45.9L70.0127 47.34C69.7193 47.46 69.3727 47.56 68.9727 47.64C68.5727 47.72 68.2193 47.76 67.9127 47.76C67.2327 47.76 66.6927 47.5667 66.2927 47.18C65.906 46.7933 65.7127 46.2533 65.7127 45.56V33.02Z" fill="#13293D"/>
<path d="M71.4353 33.02H73.1953V44.92C73.1953 45.4933 73.2753 45.8467 73.4353 45.98C73.5953 46.1133 73.7886 46.18 74.0153 46.18C74.2953 46.18 74.562 46.1533 74.8153 46.1C75.0686 46.0333 75.282 45.9667 75.4553 45.9L75.7353 47.34C75.442 47.46 75.0953 47.56 74.6953 47.64C74.2953 47.72 73.942 47.76 73.6353 47.76C72.9553 47.76 72.4153 47.5667 72.0153 47.18C71.6286 46.7933 71.4353 46.2533 71.4353 45.56V33.02Z" fill="#13293D"/>
<path d="M77.118 35.22V33.02H78.878V35.22H77.118ZM77.118 47.62V37.18H78.878V47.62H77.118Z" fill="#13293D"/>
<path d="M90.7873 47.62H89.0273V41.78C89.0273 40.6733 88.854 39.8667 88.5073 39.36C88.174 38.84 87.6607 38.58 86.9673 38.58C86.4873 38.58 86.0073 38.7 85.5273 38.94C85.0607 39.18 84.6407 39.5067 84.2673 39.92C83.9073 40.32 83.6473 40.7867 83.4873 41.32V47.62H81.7273V37.18H83.3273V39.42C83.7407 38.6867 84.334 38.1 85.1073 37.66C85.894 37.22 86.7473 37 87.6673 37C88.4807 37 89.1073 37.1933 89.5473 37.58C90.0007 37.9533 90.3207 38.4733 90.5073 39.14C90.694 39.7933 90.7873 40.54 90.7873 41.38V47.62Z" fill="#13293D"/>
<path d="M98.1442 47.82C97.1042 47.82 96.1842 47.5733 95.3842 47.08C94.5842 46.5867 93.9576 45.9267 93.5042 45.1C93.0509 44.2733 92.8242 43.3733 92.8242 42.4C92.8242 41.4133 93.0509 40.5133 93.5042 39.7C93.9576 38.8867 94.5842 38.2333 95.3842 37.74C96.1975 37.2467 97.1242 37 98.1642 37C99.2175 37 100.131 37.2533 100.904 37.76C101.691 38.2533 102.298 38.9067 102.724 39.72C103.164 40.52 103.384 41.3867 103.384 42.32C103.384 42.6133 103.371 42.84 103.344 43H94.6842C94.7376 43.68 94.9242 44.2867 95.2442 44.82C95.5776 45.34 96.0042 45.7533 96.5242 46.06C97.0442 46.3533 97.6042 46.5 98.2042 46.5C98.8442 46.5 99.4442 46.34 100.004 46.02C100.578 45.7 100.971 45.28 101.184 44.76L102.704 45.18C102.371 45.9533 101.791 46.5867 100.964 47.08C100.138 47.5733 99.1976 47.82 98.1442 47.82ZM94.6242 41.78H101.744C101.691 41.1 101.498 40.5 101.164 39.98C100.831 39.46 100.404 39.0533 99.8842 38.76C99.3642 38.4667 98.7909 38.32 98.1642 38.32C97.5509 38.32 96.9842 38.4667 96.4642 38.76C95.9442 39.0533 95.5176 39.46 95.1842 39.98C94.8642 40.5 94.6776 41.1 94.6242 41.78Z" fill="#13293D"/>
<path d="M114.401 47.62H112.641V41.78C112.641 40.6733 112.467 39.8667 112.121 39.36C111.787 38.84 111.274 38.58 110.581 38.58C110.101 38.58 109.621 38.7 109.141 38.94C108.674 39.18 108.254 39.5067 107.881 39.92C107.521 40.32 107.261 40.7867 107.101 41.32V47.62H105.341V37.18H106.941V39.42C107.354 38.6867 107.947 38.1 108.721 37.66C109.507 37.22 110.361 37 111.281 37C112.094 37 112.721 37.1933 113.161 37.58C113.614 37.9533 113.934 38.4733 114.121 39.14C114.307 39.7933 114.401 40.54 114.401 41.38V47.62Z" fill="#13293D"/>
</svg>
